<svg id="Circle" xmlns="http://www.w3.org/2000/svg" viewBox="0 0 93 93"><defs><style>.cls-1{fill:none;stroke:#fff;stroke-miterlimit:10;}.cls-2{fill:#fff;}</style></defs><title>googleplus</title><circle class="cls-1" cx="46.5" cy="46.5" r="46"/><path class="cls-2" d="M54,35.09H44.14c-4.51,0-8.75,3.16-8.75,7.12S38.46,49.4,43,49.4c0.32,0,.63-0.07.93-0.09a3.92,3.92,0,0,0-.51,1.85,3.88,3.88,0,0,0,1.37,2.76H43.09c-5.59,0-9.88,3.56-9.88,7.24s4.71,5.91,10.3,5.91c6.37,0,9.89-3.62,9.89-7.25,0-2.91-.86-4.66-3.52-6.54-0.91-.64-2.65-2.21-2.65-3.13,0-1.08.31-1.61,1.93-2.88S52,44.43,52,42.3c0-2.53-1.09-5.61-3.2-5.61h3.6ZM50.69,59.2a4.7,4.7,0,0,1,.12,1c0,2.94-1.89,5.23-7.32,5.23-3.86,0-6.65-2.44-6.65-5.38s3.46-5.27,7.32-5.23a8.52,8.52,0,0,1,2.5.4C48.76,56.71,50.26,57.54,50.69,59.2Zm-6.18-11c-2.59-.08-5.06-2.9-5.5-6.3s1.29-6,3.88-5.93,5.06,2.81,5.5,6.21S47.09,48.32,44.5,48.24Z" transform="translate(-3.5 -3.5)"/><polygon class="cls-2" points="58.49 44.37 58.49 39.58 55.29 39.58 55.29 44.37 50.49 44.37 50.49 47.57 55.29 47.57 55.29 52.37 58.49 52.37 58.49 47.57 63.29 47.57 63.29 44.37 58.49 44.37"/></svg>