<svg id="Circle" xmlns="http://www.w3.org/2000/svg" viewBox="0 0 93 93"><defs><style>.cls-1{fill:none;stroke:#fff;stroke-miterlimit:10;}.cls-2{fill:#fff;}</style></defs><title>instagram</title><circle class="cls-1" cx="46.5" cy="46.5" r="46"/><path class="cls-2" d="M68.72,34.47a4.07,4.07,0,0,0-3.43-3.23l-0.21,0H34.92l-0.54.1a4.05,4.05,0,0,0-3.14,3.41c0,0.07,0,.14,0,0.21V65.08c0,0.19.06,0.38,0.1,0.57a4.07,4.07,0,0,0,3.41,3.11l0.24,0H65l0.59-.1a4.07,4.07,0,0,0,3.09-3.15c0-.17.06-0.34,0.08-0.5V35C68.77,34.8,68.75,34.63,68.72,34.47Zm-9.07-.21H63.2a1.52,1.52,0,0,1,1.52,1.53v3.56a1.51,1.51,0,0,1-1.44,1.5c-0.62,0-1.24,0-1.86,0H59.71a1.52,1.52,0,0,1-1.49-1,1.73,1.73,0,0,1-.09-0.52c0-1.18,0-2.35,0-3.53A1.52,1.52,0,0,1,59.65,34.25ZM50,42.38a7.62,7.62,0,1,1-7.62,7.5A7.62,7.62,0,0,1,50,42.38Zm14.73,4.18q0,8.33,0,16.67a1.52,1.52,0,0,1-1.5,1.49H36.76a1.52,1.52,0,0,1-1.49-1.49q0-8.35,0-16.69v-0.1h3.58a11.68,11.68,0,0,0,.91,9.18A11.42,11.42,0,0,0,44.3,60.2,11.68,11.68,0,0,0,60,56.08a11.49,11.49,0,0,0,1.62-4.69,11.76,11.76,0,0,0-.46-4.95h3.59v0.12Z" transform="translate(-3.5 -3.5)"/></svg>