<svg id="Circle" xmlns="http://www.w3.org/2000/svg" viewBox="0 0 93 93"><defs><style>.cls-1{fill:none;stroke:#fff;stroke-miterlimit:10;}.cls-2{fill:#fff;}</style></defs><title>linkedin</title><circle class="cls-1" cx="46.5" cy="46.5" r="46"/><path class="cls-2" d="M65.47,64.78V53.34c0-6.13-3.27-9-7.63-9a6.58,6.58,0,0,0-6,3.29V44.83H45.23c0.09,1.87,0,20,0,20h6.63V53.64A4.53,4.53,0,0,1,52.08,52a3.63,3.63,0,0,1,3.4-2.42c2.4,0,3.36,1.83,3.36,4.51V64.78h6.63ZM38.24,42.11a3.46,3.46,0,1,0,0-6.9,3.46,3.46,0,1,0-.09,6.9h0Zm3.32,22.68v-20H34.92v20h6.63Z" transform="translate(-3.5 -3.5)"/></svg>