<svg id="Wersja_white" data-name="Wersja white" xmlns="http://www.w3.org/2000/svg" viewBox="0 0 534.23 486"><defs><style>.cls-1,.cls-2{fill:#fff;}.cls-1{opacity:0.3;}</style></defs><title>logo_transparent</title><circle class="cls-1" cx="291.23" cy="243" r="243"/><path class="cls-2" d="M188.62,517.33a244.06,244.06,0,0,1-65.81-57.54l-14.3-227.93,80.11,65.34V469h52.13v-70.5H273v-118h22.75v-52h5.75v-32h8l1.92-85.25a1.5,1.5,0,0,1,1.5-1.42h0.16a1.5,1.5,0,0,1,1.5,1.42l1.92,85.25h8v32h5.75v52H352v118h32.25V469h52.13V273.53H512V448A243.13,243.13,0,0,1,188.62,517.33Z" transform="translate(-21.77 -65.53)"/><g id="Warstwa_8" data-name="Warstwa 8"><circle class="cls-2" cx="67.69" cy="422.44" r="22.5"/><circle class="cls-2" cx="17.5" cy="463.03" r="17.5"/></g></svg>