<svg id="Wersja_white" data-name="Wersja white" xmlns="http://www.w3.org/2000/svg" viewBox="0 0 486 486"><defs><style>.cls-1,.cls-2{fill:#fff;}.cls-1{opacity:0.3;}</style></defs><title>logo</title><circle class="cls-1" cx="243" cy="243" r="243"/><path class="cls-2" d="M126.62,460.77a244.06,244.06,0,0,1-65.81-57.54L46.51,175.3l80.11,65.34V412.47h52.13V342H211V224h22.75V172h5.75V140h8l1.92-85.25a1.5,1.5,0,0,1,1.5-1.42h0.16a1.5,1.5,0,0,1,1.5,1.42L254.5,140h8v32h5.75v52H290V342h32.25v70.5h52.13V217H450V391.46A243.13,243.13,0,0,1,126.62,460.77Z" transform="translate(-8 -8.97)"/></svg>