<svg id="Syrenka_green_grey" data-name="Syrenka green grey" xmlns="http://www.w3.org/2000/svg" viewBox="0 0 2955.09 499.4">
  <defs>
    <style>
      .cls-1, .cls-3 {
        fill: #292929;
      }

      .cls-1 {
        isolation: isolate;
      }

      .cls-2 {
        fill: #00dbfc;
      }
    </style>
  </defs>
  <title>logo_napis_kolor</title>
  <circle class="cls-1" cx="2712.09" cy="243" r="243"/>
  <path class="cls-2" d="M2588.2,452.8a244.06,244.06,0,0,1-65.81-57.54l-14.3-227.93,80.11,65.34V404.5h52.13V334h32.25V216h22.75V164h5.75V132h8L2711,46.75a1.5,1.5,0,0,1,1.5-1.42h0.16a1.5,1.5,0,0,1,1.5,1.42l1.92,85.25h8v32h5.75v52h21.75V334h32.25v70.5h15.29v-21H2806l4.08-2.65,2.65-22.23,7.95-28.35,4.47-11.07a8.93,8.93,0,0,0,.63-3.27,5,5,0,0,0-.35-1.84l-0.47-1.22a12.91,12.91,0,0,0-1.59-2.92l-6.56-9c-2.77-5.49-1.7-13.07,0-19a18.62,18.62,0,0,1,3.23-6.31l3.69-4.7-0.49-3a10.88,10.88,0,0,1,1.8-8,6.55,6.55,0,0,1,1.79-1.73l8.32-5.43-8.19-6.4-5.07-4.61-5.71-7.55L2813,229.6l4.83-12.51,6.45-13.19,4.22-6.79,0.81-9.31,0.34-1.5,1.53-2.25h1.53l1.23-1.42h2.24l1.22-1.23,2,1,1.43-1,1.84,1.23v-3.27h4.89v4.08l71.78,2.25,6.73,8.36-74.53-1.23-4.8.21,0.1,3-2.58-.69a5.1,5.1,0,0,0-4.11.68l-1.56,1-2.38,3-3.67,12.64-4.15,16,10,8.56,5.1,2-0.81-3.26-2.75-1.1a4.4,4.4,0,0,1-2.72-3.45l-0.45-3-2-2,1.84-4.89v-2.45a6.61,6.61,0,0,1,.94-3.41l0.28-.46-0.2-3.47,3.26-1.22,3.82-1.57a7.21,7.21,0,0,1,1.37-.41l4.14-.83a4.34,4.34,0,0,1,2.47.24l4.72,1.95,1.83,1.64,1.43,3.46,0.82,6.53,0.23,3.18a12,12,0,0,0,1.22,4.41l0.59,1.18v1.63a5,5,0,0,1-1.36,5.23l-2.31,2.11-1,1.22a2.3,2.3,0,0,0-.69,2.52l1.3,3.6,2.24,5.92,0.21,6.93v4.08l0.67,2.5a30,30,0,0,0,1.55,4.41c1,2.29,2.47,5.55,2.63,5.87l1.85,3.54a30.88,30.88,0,0,1,1.71,4.08l0.5,2.41a19.64,19.64,0,0,1,.39,4.59v1a14.81,14.81,0,0,1-1.23,5.4l-2.09,4.79a23.85,23.85,0,0,1-4.87,7.2l-2.72,2.76-0.14.14a3.54,3.54,0,0,0-.89,3.51l0.14,0.47a24.84,24.84,0,0,1,1,6.17v0.38a11.48,11.48,0,0,1-1.09,4.89l-0.34.72a12.23,12.23,0,0,0-.9,7.72l0.9,4.26a3.2,3.2,0,0,0,2.88,2.51l3.12,0.23,1.17-.18a8.53,8.53,0,0,0,4.94-2.56l2.26-2.36,4.28-3.87,2.35-3.74a16.13,16.13,0,0,0,2.42-7.4l0.73-10.48-0.81-6.32-1.54-5.5-0.91-3.27a2.48,2.48,0,0,1,1.31-3,11.59,11.59,0,0,1,5-1.13h0.93a4.87,4.87,0,0,1,2.6.76l2.62,1.69,3.31,2.52a15.6,15.6,0,0,1,1.82,1.62l4.46,4.63,1.22,1.42,8.34,1.9a12.64,12.64,0,0,1,1.24.36l1.81,0.64a11.45,11.45,0,0,1,2,.93l0.24,0.14a13.47,13.47,0,0,1,3.87,3.42l0.43,0.57,0.91,1.48a2.69,2.69,0,0,1-.79,3.63L2917,321.9,2912.5,325l-0.18.12a23.42,23.42,0,0,0-7,7.43l-0.81,3.87a22.51,22.51,0,0,0-.22,3.06,21.48,21.48,0,0,0,.17,2.66l0.05,0.4,0.34,3.28a1,1,0,0,0,1.42.75l2-1.11L2920,364.57a6.39,6.39,0,0,1,.92,3v0.31a6.06,6.06,0,0,1-.2,1.53,6.19,6.19,0,0,1-1.28,2.48l-0.85,1h0q-3,4.77-6.18,9.38l2.32,1.21h-3.17A243.13,243.13,0,0,1,2588.2,452.8Z" transform="translate(0.01 0)"/>
  <circle class="cls-3" cx="2512.69" cy="438.54" r="23.25"/>
  <circle class="cls-3" cx="2473.16" cy="482.96" r="16.44"/>
  <g>
    <path class="cls-3" d="M35.2,117L83.91,292.5l48.54-175.34a15.42,15.42,0,0,1,6.24-8.8,19.07,19.07,0,0,1,21.53-.34,16.34,16.34,0,0,1,6.75,9l48.7,175.48L264.55,117a16.83,16.83,0,0,1,4.27-6.84,17.46,17.46,0,0,1,12.82-5.3,17.19,17.19,0,0,1,12.73,5.3A17.61,17.61,0,0,1,299.58,123a33.74,33.74,0,0,1-1.2,7.18L234,363.62a24.34,24.34,0,0,1-7.18,10.68,16.76,16.76,0,0,1-11.11,4A16.3,16.3,0,0,1,203,372.85a25.31,25.31,0,0,1-5.47-8.89L149.88,191.19,102.2,363.62A24.34,24.34,0,0,1,95,374.31a17.58,17.58,0,0,1-23.93-1.45,22.77,22.77,0,0,1-5.3-8.89L1,130a28.11,28.11,0,0,1-1-7A18.09,18.09,0,0,1,18,104.89h0.06a17.47,17.47,0,0,1,12.82,5.3A19.75,19.75,0,0,1,35.2,117Z" transform="translate(0.01 0)"/>
    <path class="cls-3" d="M483.47,360.5v-3.42a97.92,97.92,0,0,1-27.86,15.72,93.26,93.26,0,0,1-32.13,5.47q-39.65,0-67.68-28t-28-67.68q0-39.65,28-67.68t67.68-28q39.31,0,67.68,28,28,28,28,67.68V360.5a17.8,17.8,0,0,1-17.77,17.77,17.31,17.31,0,0,1-12.73-5.21A17.11,17.11,0,0,1,483.47,360.5Zm-60-137.92a58.2,58.2,0,0,0-23.58,4.79,60,60,0,0,0,47,110.48,60.81,60.81,0,0,0,19.06-13,61.68,61.68,0,0,0,12.82-19.06,59.4,59.4,0,0,0,0-46.31A61.72,61.72,0,0,0,466,240.41a60.85,60.85,0,0,0-19.06-13,57.8,57.8,0,0,0-23.44-4.78Z" transform="translate(0.01 0)"/>
    <path class="cls-3" d="M581.57,204.69v3.42a98,98,0,0,1,27.86-15.72,93.3,93.3,0,0,1,32.13-5.47,137.36,137.36,0,0,1,16.15,1,70.67,70.67,0,0,1,15.89,3.67,33.76,33.76,0,0,1,12,7.26,15.89,15.89,0,0,1,4.79,12,17,17,0,0,1-1.45,7,19.82,19.82,0,0,1-3.85,5.73,16.83,16.83,0,0,1-5.64,3.85,17.85,17.85,0,0,1-7,1.37,19.07,19.07,0,0,1-7.52-1.88,63,63,0,0,0-23.41-4.27,58.68,58.68,0,0,0-23.41,4.7,59.78,59.78,0,0,0-31.87,31.87,58.65,58.65,0,0,0-4.7,23.41V360.5a17.8,17.8,0,0,1-17.77,17.77A17.31,17.31,0,0,1,551,373.06a17.11,17.11,0,0,1-5.19-12.56V204.69a17.12,17.12,0,0,1,5.21-12.56,17.32,17.32,0,0,1,12.73-5.21A17.8,17.8,0,0,1,581.57,204.69Z" transform="translate(0.01 0)"/>
    <path class="cls-3" d="M745.46,287.23q-16.07-6.15-22.56-12.65h0.17q-13-13.16-13-30.93a41.8,41.8,0,0,1,6.92-23.5,62.64,62.64,0,0,1,18-17.86,90.52,90.52,0,0,1,25-11.36,100.47,100.47,0,0,1,27.94-4q42.72,0,73.32,34.35a16.6,16.6,0,0,1,3.59,10.77,17.24,17.24,0,0,1-16.69,17.77q-0.54,0-1.08,0a14.44,14.44,0,0,1-9.31-3.08,90.21,90.21,0,0,1-7.43-6.67Q813,222.63,788,222.63q-24.61,0-39.31,15a10.16,10.16,0,0,0-2.73,7.52,6.4,6.4,0,0,0,4.44,6.49l80,26.32q16.75,6.54,22.6,12.69h-0.17q13,13.16,13,30.93a41.67,41.67,0,0,1-6.92,23.58,64.12,64.12,0,0,1-18,17.86,87.49,87.49,0,0,1-25,11.36A101.48,101.48,0,0,1,788,378.32q-43.07,0-73.32-34a17.92,17.92,0,0,1-3.76-11.11,17.24,17.24,0,0,1,16.69-17.77q0.54,0,1.08,0a14.31,14.31,0,0,1,9.57,3.33q3.93,3.33,7.18,6.41Q762.89,342.6,788,342.6q24.44,0,39.31-15.38a10.22,10.22,0,0,0,2.56-7,6.71,6.71,0,0,0-4.61-6.67Z" transform="translate(0.01 0)"/>
    <path class="cls-3" d="M1047.44,360.5v-3.42a97.92,97.92,0,0,1-27.86,15.72,93.26,93.26,0,0,1-32.13,5.47q-39.65,0-67.68-28t-28-67.68q0-39.65,28-67.68t67.68-28q39.31,0,67.68,28,28,28,28,67.68V360.5a17.8,17.8,0,0,1-17.77,17.77,17.31,17.31,0,0,1-12.73-5.21A17.11,17.11,0,0,1,1047.44,360.5Zm-60-137.92a58.2,58.2,0,0,0-23.58,4.79,60,60,0,0,0,47,110.48,60.81,60.81,0,0,0,19.06-13,61.68,61.68,0,0,0,12.82-19.06,59.4,59.4,0,0,0,0-46.31,61.72,61.72,0,0,0-12.82-19.06,60.85,60.85,0,0,0-19.06-13,57.8,57.8,0,0,0-23.41-4.79v-0.05Z" transform="translate(0.01 0)"/>
    <path class="cls-3" d="M1232.86,186.92q12.65,0,17.09,13.16l34.69,104.08,35.89-107.32a13.08,13.08,0,0,1,5.47-7.18q4.1-2.73,10.6-2.73a17.89,17.89,0,0,1,7,1.37,16.9,16.9,0,0,1,5.64,3.85,19.88,19.88,0,0,1,3.85,5.73,16.58,16.58,0,0,1,1.45,6.84,19.22,19.22,0,0,1-1.37,6.84l-51.78,155.31a16.45,16.45,0,0,1-5.64,8.2q-4.1,3.25-11.11,3.25a17.32,17.32,0,0,1-10.6-3.42,15.48,15.48,0,0,1-6-8l-35.21-105.62L1197.62,366.9a15.5,15.5,0,0,1-6.15,8.2,18,18,0,0,1-10.6,3.25,17.55,17.55,0,0,1-10.51-3.25,16.57,16.57,0,0,1-6.24-8.2l-51.74-155.4a22.71,22.71,0,0,1-1.2-6.84,17.41,17.41,0,0,1,1.37-6.84,18.48,18.48,0,0,1,3.76-5.73,16.86,16.86,0,0,1,5.64-3.85,19.35,19.35,0,0,1,17.35,1.54,14.92,14.92,0,0,1,5.73,7l35.89,107.15L1215.61,200Q1220,186.92,1232.86,186.92Z" transform="translate(0.01 0)"/>
    <path class="cls-3" d="M1482.2,340.38a17.29,17.29,0,0,1-3.59-10.94,18.47,18.47,0,0,1,1.37-7.09,17.51,17.51,0,0,1,3.85-5.81,17.8,17.8,0,0,1,5.73-3.85,18.33,18.33,0,0,1,7.18-1.37q10.08,0,15.21,8.37a47.5,47.5,0,0,0,17.93,16.81,49.34,49.34,0,0,0,23.24,5.64,44.62,44.62,0,0,0,18.37-3.85,48.24,48.24,0,0,0,25.21-25.63,47.15,47.15,0,0,0,3.76-18.71,45,45,0,0,0-3.5-17.69,47.55,47.55,0,0,0-9.48-14.53,49.66,49.66,0,0,0-13.93-10.23,48.09,48.09,0,0,0-16.83-4.79,69,69,0,0,1-25.46-7.18,73.88,73.88,0,0,1-20.68-15.47,71.09,71.09,0,0,1-13.93-21.7,67.19,67.19,0,0,1-5-25.89,71,71,0,0,1,6.32-30.33A71.77,71.77,0,0,1,1516.6,122h-0.17q19.65-17.09,46.14-17.09a70.28,70.28,0,0,1,17.09,2.14,69.07,69.07,0,0,1,16.49,6.49A73,73,0,0,1,1611,124.37a76.46,76.46,0,0,1,12.39,15.21,19.16,19.16,0,0,1,2.56,9.74,18.32,18.32,0,0,1-1.37,7.18,17.8,17.8,0,0,1-3.85,5.73,17.52,17.52,0,0,1-5.81,3.85,18.48,18.48,0,0,1-7.09,1.37,16.71,16.71,0,0,1-6.07-1,15.79,15.79,0,0,1-4.76-2.95,33.24,33.24,0,0,1-4.1-4.36q-2-2.48-4.19-5.73a25,25,0,0,0-11.19-9,39,39,0,0,0-15.3-3,31.69,31.69,0,0,0-12.65,2.65,36.32,36.32,0,0,0-10.94,7.26,37,37,0,0,0-7.78,10.94,31.56,31.56,0,0,0-3,13.67,32.7,32.7,0,0,0,2.48,12.65,36.45,36.45,0,0,0,6.75,10.68,35.68,35.68,0,0,0,10,7.69,31.71,31.71,0,0,0,12.39,3.5,79.62,79.62,0,0,1,29.91,8.2,86,86,0,0,1,41.19,43.92,77.65,77.65,0,0,1,6.15,30.59q0,40-29.57,64.94h0.17q-23.76,20.17-54,20.17a84.14,84.14,0,0,1-20.17-2.48,88.32,88.32,0,0,1-19.4-7.26,84.52,84.52,0,0,1-17.43-12A81.5,81.5,0,0,1,1482.2,340.38Z" transform="translate(0.01 0)"/>
    <path class="cls-3" d="M1677.54,186.92h8V122.66a17.12,17.12,0,0,1,5.21-12.56,17.32,17.32,0,0,1,12.73-5.21,17.8,17.8,0,0,1,17.77,17.77v64.26h21.36a16.85,16.85,0,0,1,12.48,5.21,17.27,17.27,0,0,1,5.13,12.56,17.46,17.46,0,0,1-5.13,12.73,16.84,16.84,0,0,1-12.48,5.21h-21.32v86q0,34,34.18,34a16.85,16.85,0,0,1,12.48,5.21,17.27,17.27,0,0,1,5.13,12.56,17.46,17.46,0,0,1-5.13,12.73,16.83,16.83,0,0,1-12.48,5.21q-69.9,0-69.9-69.73v-86h-8a16.92,16.92,0,0,1-12.39-5.21,17.31,17.31,0,0,1-5.21-12.73,17.12,17.12,0,0,1,5.21-12.56A16.93,16.93,0,0,1,1677.54,186.92Z" transform="translate(0.01 0)"/>
    <path class="cls-3" d="M1988.92,282.62q0,40-28,67.68-28.37,28-67.68,28-39.65,0-67.68-28t-28-67.68q0-39.65,28-67.68t67.68-28q39.31,0,67.68,28a93.91,93.91,0,0,1,20.94,30.93A98.41,98.41,0,0,1,1988.92,282.62Zm-95.7-60a58.2,58.2,0,0,0-23.58,4.79,60,60,0,0,0,47,110.48,60.81,60.81,0,0,0,19.06-13,61.68,61.68,0,0,0,12.82-19.06,59.4,59.4,0,0,0,0-46.31,61.72,61.72,0,0,0-12.82-19.06,60.85,60.85,0,0,0-19.06-13,57.8,57.8,0,0,0-23.43-4.83h0Z" transform="translate(0.01 0)"/>
    <path class="cls-3" d="M2051.29,204.69v3.42a98,98,0,0,1,27.86-15.72,93.3,93.3,0,0,1,32.13-5.47,137.36,137.36,0,0,1,16.15,1,70.67,70.67,0,0,1,15.89,3.67,33.76,33.76,0,0,1,12,7.26,15.89,15.89,0,0,1,4.79,12,17,17,0,0,1-1.45,7,19.82,19.82,0,0,1-3.85,5.73,16.83,16.83,0,0,1-5.64,3.85,17.85,17.85,0,0,1-7,1.37,19.07,19.07,0,0,1-7.52-1.88,63,63,0,0,0-23.41-4.27,58.68,58.68,0,0,0-23.41,4.7A59.78,59.78,0,0,0,2056,259.21a58.65,58.65,0,0,0-4.7,23.41V360.5a17.8,17.8,0,0,1-17.77,17.77,17.31,17.31,0,0,1-12.73-5.21,17.11,17.11,0,0,1-5.21-12.56V204.69a17.12,17.12,0,0,1,5.21-12.56,17.32,17.32,0,0,1,12.73-5.21A17.8,17.8,0,0,1,2051.29,204.69Z" transform="translate(0.01 0)"/>
    <path class="cls-3" d="M2243.21,360.5l-61.52-147.78a20,20,0,0,1-1.71-8,17.41,17.41,0,0,1,1.37-6.84,18.48,18.48,0,0,1,3.76-5.73,16.86,16.86,0,0,1,5.64-3.85,18.2,18.2,0,0,1,16.92,1.62,18.54,18.54,0,0,1,7,8.8l48,114.67,48-115a20.21,20.21,0,0,1,5.9-8.29q3.85-3.16,10.85-3.16a17.89,17.89,0,0,1,7,1.37,16.9,16.9,0,0,1,5.64,3.85,19.88,19.88,0,0,1,3.85,5.73,16.58,16.58,0,0,1,1.45,6.84,20,20,0,0,1-1.88,8L2245.21,448.4a20,20,0,0,1-6.84,8.63,16.86,16.86,0,0,1-10.08,3.33,17.1,17.1,0,0,1-12.73-5.13,17.54,17.54,0,0,1-5-12.82,18.77,18.77,0,0,1,1.71-7.86Z" transform="translate(0.01 0)"/>
  </g>
</svg>
