<svg id="Wersja_white" data-name="Wersja white" xmlns="http://www.w3.org/2000/svg" viewBox="0 0 1807.63 187.58"><defs><style>.cls-1{fill:#fff;}</style></defs><title>napis_white</title><g id="Warstwa_9" data-name="Warstwa 9"><path class="cls-1" d="M40.3,30.65L73.69,151,107,30.76a10.57,10.57,0,0,1,4.28-6A13.08,13.08,0,0,1,126,24.53a11.2,11.2,0,0,1,4.63,6.15L164.06,151l33.5-120.38A11.54,11.54,0,0,1,200.47,26a12,12,0,0,1,8.81-3.66A11.79,11.79,0,0,1,218,25.93a12.08,12.08,0,0,1,3.57,8.79,23.16,23.16,0,0,1-.82,4.92L176.59,199.75a16.68,16.68,0,0,1-4.92,7.32,11.49,11.49,0,0,1-7.62,2.75,11.18,11.18,0,0,1-8.67-3.75,17.35,17.35,0,0,1-3.75-6.09L118.93,81.51,86.23,199.75a16.68,16.68,0,0,1-4.92,7.32,12,12,0,0,1-16.41-1A15.61,15.61,0,0,1,61.27,200L16.86,39.55a19.28,19.28,0,0,1-.7-4.8A12.4,12.4,0,0,1,28.51,22.3h0.07a12,12,0,0,1,8.79,3.63A13.55,13.55,0,0,1,40.3,30.65Z" transform="translate(-16.16 -22.3)"/><path class="cls-1" d="M347.68,197.64V195.3a67.14,67.14,0,0,1-19.1,10.78,64,64,0,0,1-22,3.75A65.62,65.62,0,0,1,241,144.22h0a65.62,65.62,0,0,1,65.61-65.63h0q27,0,46.41,19.22a63.24,63.24,0,0,1,19.18,46.4v53.44A12.2,12.2,0,0,1,360,209.83a11.87,11.87,0,0,1-8.73-3.57A11.73,11.73,0,0,1,347.68,197.64Zm-41.13-94.57a39.91,39.91,0,0,0-16.17,3.28,41.16,41.16,0,0,0,32.23,75.74,41.7,41.7,0,0,0,13.07-8.91,42.3,42.3,0,0,0,8.79-13.1,40.73,40.73,0,0,0,0-31.78,42.32,42.32,0,0,0-8.8-13,41.74,41.74,0,0,0-13.07-8.91A39.63,39.63,0,0,0,306.55,103.07Z" transform="translate(-16.16 -22.3)"/><path class="cls-1" d="M414.94,90.76V93.1a67.16,67.16,0,0,1,19.11-10.8,64,64,0,0,1,22-3.75,94.2,94.2,0,0,1,11.07.7A48.48,48.48,0,0,1,478,81.77a23.16,23.16,0,0,1,8.26,5,10.89,10.89,0,0,1,3.28,8.2,11.64,11.64,0,0,1-1,4.8,13.6,13.6,0,0,1-2.64,3.93,11.53,11.53,0,0,1-3.87,2.64,12.24,12.24,0,0,1-4.8.94,13.08,13.08,0,0,1-5.16-1.29,43.16,43.16,0,0,0-16-2.93,40.24,40.24,0,0,0-16,3.24,41,41,0,0,0-21.86,21.86,40.22,40.22,0,0,0-3.22,16.05v53.44a12.2,12.2,0,0,1-12.19,12.19,11.87,11.87,0,0,1-8.73-3.57,11.73,11.73,0,0,1-3.57-8.61V90.76A11.74,11.74,0,0,1,394,82.15a11.88,11.88,0,0,1,8.73-3.57A12.2,12.2,0,0,1,414.94,90.76Z" transform="translate(-16.16 -22.3)"/><path class="cls-1" d="M527.33,147.37q-11-4.22-15.47-8.67H512a29.21,29.21,0,0,1-8.91-21.21,28.66,28.66,0,0,1,4.75-16.11,43,43,0,0,1,12.36-12.25,62.07,62.07,0,0,1,17.17-7.83,68.88,68.88,0,0,1,19.12-2.72q29.3,0,50.27,23.55a11.38,11.38,0,0,1,2.46,7.38,11.82,11.82,0,0,1-11.44,12.19H597a9.9,9.9,0,0,1-6.39-2.11,61.87,61.87,0,0,1-5.1-4.57,39.56,39.56,0,0,0-29.06-12q-16.87,0-27,10.31a7,7,0,0,0-1.87,5.16,4.39,4.39,0,0,0,3,4.45l54.84,18q11.48,4.45,15.47,8.67h-0.12a29.22,29.22,0,0,1,8.91,21.21A28.57,28.57,0,0,1,604.94,187a44,44,0,0,1-12.22,12.31,60,60,0,0,1-17.11,7.79,69.59,69.59,0,0,1-19.1,2.7q-29.53,0-50.27-23.32a12.28,12.28,0,0,1-2.58-7.62,11.82,11.82,0,0,1,11.44-12.19h0.75a9.81,9.81,0,0,1,6.56,2.29q2.69,2.29,4.92,4.39a39.7,39.7,0,0,0,29.14,12q16.76,0,27-10.55a7,7,0,0,0,1.76-4.8,4.6,4.6,0,0,0-3.16-4.57Z" transform="translate(-16.16 -22.3)"/><path class="cls-1" d="M734.4,197.64V195.3a67.14,67.14,0,0,1-19.1,10.78,64,64,0,0,1-22,3.75,65.62,65.62,0,0,1,0-131.25h0q27,0,46.41,19.22a63.24,63.24,0,0,1,19.22,46.41v53.44a12.2,12.2,0,0,1-12.19,12.19A11.87,11.87,0,0,1,738,206.3,11.73,11.73,0,0,1,734.4,197.64Zm-41.13-94.57a39.91,39.91,0,0,0-16.17,3.28,41.15,41.15,0,1,0,32.22,75.74,41.7,41.7,0,0,0,13.07-8.91,42.3,42.3,0,0,0,8.79-13.07,40.73,40.73,0,0,0,0-31.76,42.32,42.32,0,0,0-8.79-13.05,41.74,41.74,0,0,0-13.07-8.91,39.63,39.63,0,0,0-16.06-3.32h0Z" transform="translate(-16.16 -22.3)"/><path class="cls-1" d="M861.55,78.58q8.67,0,11.72,9L897.06,159l24.61-73.59a9,9,0,0,1,3.75-4.92,12.87,12.87,0,0,1,7.27-1.87,12.28,12.28,0,0,1,4.8.94,11.58,11.58,0,0,1,3.87,2.64A13.66,13.66,0,0,1,944,86.08a11.37,11.37,0,0,1,1,4.69,13.19,13.19,0,0,1-.94,4.69L908.54,202a11.28,11.28,0,0,1-3.87,5.63,13.25,13.25,0,0,1-14.88-.12,10.61,10.61,0,0,1-4.1-5.51l-24.14-72.42L837.41,202a10.63,10.63,0,0,1-4.22,5.63,12.31,12.31,0,0,1-7.27,2.23,12,12,0,0,1-7.21-2.23,11.36,11.36,0,0,1-4.28-5.62L778.93,95.45a15.56,15.56,0,0,1-.82-4.69,11.94,11.94,0,0,1,.94-4.69,12.67,12.67,0,0,1,2.58-3.93,11.55,11.55,0,0,1,3.84-2.63,13.27,13.27,0,0,1,11.89,1.05,10.23,10.23,0,0,1,3.93,4.8l24.61,73.48L849.71,87.6Q852.76,78.58,861.55,78.58Z" transform="translate(-16.16 -22.3)"/><path class="cls-1" d="M1032.52,183.81a11.85,11.85,0,0,1-2.46-7.5,12.67,12.67,0,0,1,.94-4.86,12,12,0,0,1,2.64-4,12.2,12.2,0,0,1,3.93-2.64,12.57,12.57,0,0,1,4.92-.94,11.46,11.46,0,0,1,10.43,5.74,32.57,32.57,0,0,0,12.3,11.48,33.83,33.83,0,0,0,15.94,3.87,30.61,30.61,0,0,0,12.6-2.64,33.08,33.08,0,0,0,17.29-17.58,32.33,32.33,0,0,0,2.58-12.83,30.85,30.85,0,0,0-2.4-12.13,32.62,32.62,0,0,0-6.5-10,34,34,0,0,0-9.55-7,33,33,0,0,0-11.54-3.28,47.3,47.3,0,0,1-17.46-4.92A50.65,50.65,0,0,1,1052,104a48.74,48.74,0,0,1-9.53-14.79A46.06,46.06,0,0,1,1039,71.43a48.7,48.7,0,0,1,4.34-20.8,49.21,49.21,0,0,1,12.77-16.58H1056a46.69,46.69,0,0,1,31.6-11.75,48.22,48.22,0,0,1,11.72,1.46,47.36,47.36,0,0,1,11.31,4.45,50.09,50.09,0,0,1,10.2,7.44,52.42,52.42,0,0,1,8.5,10.43,13.14,13.14,0,0,1,1.76,6.68,12.57,12.57,0,0,1-.94,4.92,12.2,12.2,0,0,1-2.64,3.93,12,12,0,0,1-4,2.64,12.67,12.67,0,0,1-4.86.94,11.46,11.46,0,0,1-4.16-.7,10.82,10.82,0,0,1-3.28-2,22.75,22.75,0,0,1-2.81-3q-1.35-1.7-2.87-3.93a17.16,17.16,0,0,0-7.68-6.15,26.74,26.74,0,0,0-10.49-2,21.74,21.74,0,0,0-8.67,1.82,24.9,24.9,0,0,0-7.5,5,25.36,25.36,0,0,0-5.33,7.5,21.64,21.64,0,0,0-2.05,9.38,22.41,22.41,0,0,0,1.7,8.67,25,25,0,0,0,4.63,7.32,24.48,24.48,0,0,0,6.86,5.27,21.73,21.73,0,0,0,8.5,2.4,54.61,54.61,0,0,1,20.51,5.63,59,59,0,0,1,28.24,30.12,53.25,53.25,0,0,1,4.22,21q0,27.42-20.27,44.53h0.12q-16.29,13.83-37,13.83a57.69,57.69,0,0,1-13.83-1.7,60.59,60.59,0,0,1-13.3-5,58,58,0,0,1-12-8.2A55.86,55.86,0,0,1,1032.52,183.81Z" transform="translate(-16.16 -22.3)"/><path class="cls-1" d="M1166.47,78.58H1172V34.51a11.74,11.74,0,0,1,3.57-8.61,11.88,11.88,0,0,1,8.73-3.57,12.2,12.2,0,0,1,12.19,12.18V78.58h14.65a11.55,11.55,0,0,1,8.55,3.57,11.84,11.84,0,0,1,3.52,8.61,12,12,0,0,1-3.52,8.73,11.55,11.55,0,0,1-8.55,3.57h-14.65v59q0,23.32,23.44,23.32a11.55,11.55,0,0,1,8.55,3.57,11.84,11.84,0,0,1,3.52,8.61,12,12,0,0,1-3.51,8.79,11.55,11.55,0,0,1-8.55,3.57q-47.93,0-47.93-47.81v-59h-5.52a11.6,11.6,0,0,1-8.5-3.57,11.87,11.87,0,0,1-3.57-8.73,11.74,11.74,0,0,1,3.57-8.61A11.61,11.61,0,0,1,1166.47,78.58Z" transform="translate(-16.16 -22.3)"/><path class="cls-1" d="M1380,144.2q0,27.42-19.22,46.41-19.45,19.22-46.41,19.22a65.62,65.62,0,0,1,0-131.25h0q27,0,46.41,19.22A64.4,64.4,0,0,1,1375.13,119,67.5,67.5,0,0,1,1380,144.2Zm-65.62-41.13a39.91,39.91,0,0,0-16.17,3.28,41.16,41.16,0,0,0,32.25,75.74,41.7,41.7,0,0,0,13.07-8.91,42.3,42.3,0,0,0,8.79-13.07,40.73,40.73,0,0,0,0-31.76,42.32,42.32,0,0,0-8.83-13.05,41.74,41.74,0,0,0-13.07-8.91A39.63,39.63,0,0,0,1314.36,103.07Z" transform="translate(-16.16 -22.3)"/><path class="cls-1" d="M1422.76,90.76V93.1a67.16,67.16,0,0,1,19.1-10.8,64,64,0,0,1,22-3.75,94.2,94.2,0,0,1,11.07.7,48.48,48.48,0,0,1,10.9,2.52,23.16,23.16,0,0,1,8.26,5,10.89,10.89,0,0,1,3.28,8.2,11.64,11.64,0,0,1-1,4.8,13.6,13.6,0,0,1-2.64,3.93,11.53,11.53,0,0,1-3.87,2.64,12.24,12.24,0,0,1-4.8.94,13.08,13.08,0,0,1-5.16-1.29,43.16,43.16,0,0,0-16.05-2.93,40.24,40.24,0,0,0-16.05,3.22,41,41,0,0,0-21.86,21.86,40.22,40.22,0,0,0-3.22,16.05v53.44a12.2,12.2,0,0,1-12.19,12.19,11.87,11.87,0,0,1-8.73-3.57,11.73,11.73,0,0,1-3.57-8.61V90.76a11.74,11.74,0,0,1,3.57-8.61,11.88,11.88,0,0,1,8.73-3.57,12.2,12.2,0,0,1,12.23,12.17h0Z" transform="translate(-16.16 -22.3)"/><path class="cls-1" d="M1544.4,55.3a14.41,14.41,0,1,1-4.23-10.22A14.41,14.41,0,0,1,1544.4,55.3Zm-26.6,142.27V90.88a11.88,11.88,0,0,1,3.57-8.73,12.17,12.17,0,0,1,17.21,0l0,0a12.31,12.31,0,0,1,3.69,8.73V197.52a12.3,12.3,0,0,1-3.69,8.73,12.17,12.17,0,0,1-17.21,0l0,0a11.87,11.87,0,0,1-3.57-8.73v0.05Z" transform="translate(-16.16 -22.3)"/><path class="cls-1" d="M1667.33,172.91a11.82,11.82,0,0,1,12.14,11.49q0,0.35,0,.7a12.17,12.17,0,0,1-3.52,8.79q-18.17,15.94-42.89,15.94a65.63,65.63,0,0,1,0-131.26h0q27,0,46.41,19.22a63.77,63.77,0,0,1,14.41,21.15,65.67,65.67,0,0,1,4.8,25.25,11.63,11.63,0,0,1-3.57,8.73,12.08,12.08,0,0,1-8.73,3.46h-92.81a40,40,0,0,0,5.86,11.78,41.09,41.09,0,0,0,9.08,9.14,42.06,42.06,0,0,0,11.48,5.92,40.69,40.69,0,0,0,13.07,2.11,41.2,41.2,0,0,0,14.18-2.34,38.82,38.82,0,0,0,12-7A12.82,12.82,0,0,1,1667.33,172.91Zm5.27-40.9a39.34,39.34,0,0,0-5.92-11.78,41.91,41.91,0,0,0-20.62-15.06,40.34,40.34,0,0,0-12.95-2.11,40.87,40.87,0,0,0-13,2.11,42.83,42.83,0,0,0-11.6,5.92,40.63,40.63,0,0,0-9.14,9.14,38,38,0,0,0-5.74,11.78h79Z" transform="translate(-16.16 -22.3)"/><path class="cls-1" d="M1741.39,147.37q-11-4.22-15.47-8.67H1726a29.21,29.21,0,0,1-8.91-21.21,28.66,28.66,0,0,1,4.75-16.11,43,43,0,0,1,12.36-12.25,62.07,62.07,0,0,1,17.17-7.83,68.88,68.88,0,0,1,19.16-2.75q29.3,0,50.27,23.55a11.38,11.38,0,0,1,2.46,7.38,11.82,11.82,0,0,1-11.44,12.19h-0.75a9.9,9.9,0,0,1-6.39-2.11,61.88,61.88,0,0,1-5.1-4.57,39.56,39.56,0,0,0-29.06-12q-16.87,0-27,10.31a7,7,0,0,0-1.87,5.16,4.39,4.39,0,0,0,3,4.45l54.84,18q11.48,4.45,15.47,8.67h-0.12a29.22,29.22,0,0,1,8.91,21.21A28.57,28.57,0,0,1,1819,187a44,44,0,0,1-12.26,12.34,60,60,0,0,1-17.11,7.79,69.59,69.59,0,0,1-19.1,2.7q-29.53,0-50.27-23.32a12.28,12.28,0,0,1-2.58-7.62,11.82,11.82,0,0,1,11.44-12.19h0.75a9.81,9.81,0,0,1,6.56,2.29q2.69,2.29,4.92,4.39a39.7,39.7,0,0,0,29.18,12q16.76,0,27-10.55a7,7,0,0,0,1.76-4.8,4.6,4.6,0,0,0-3.16-4.57Z" transform="translate(-16.16 -22.3)"/></g></svg>