<svg id="Circle" xmlns="http://www.w3.org/2000/svg" viewBox="0 0 93 93"><defs><style>.cls-1{fill:none;stroke:#fff;stroke-miterlimit:10;}.cls-2{fill:#fff;}</style></defs><title>pinterest</title><circle class="cls-1" cx="46.5" cy="46.5" r="46"/><path class="cls-2" d="M50,31.2a18.8,18.8,0,0,0-7.55,36,16.51,16.51,0,0,1,.33-4.31L45.2,52.66a7.2,7.2,0,0,1-.6-3c0-2.78,1.62-4.86,3.63-4.86a2.52,2.52,0,0,1,2.53,2.82c0,1.72-1.1,4.29-1.66,6.67a2.91,2.91,0,0,0,3,3.62c3.56,0,6-4.57,6-10,0-4.12-2.77-7.2-7.82-7.2a8.9,8.9,0,0,0-9.25,9,5.43,5.43,0,0,0,1.24,3.69,0.9,0.9,0,0,1,.27,1c-0.09.35-.29,1.18-0.38,1.51a0.65,0.65,0,0,1-.94.47c-2.63-1.07-3.85-3.95-3.85-7.18,0-5.34,4.5-11.74,13.43-11.74,7.18,0,11.9,5.19,11.9,10.77,0,7.37-4.1,12.88-10.14,12.88a5.39,5.39,0,0,1-4.59-2.34S46.8,63.17,46.57,64a15.86,15.86,0,0,1-1.89,4A18.8,18.8,0,1,0,50,31.2Z" transform="translate(-3.5 -3.5)"/></svg>