<svg id="Circle" xmlns="http://www.w3.org/2000/svg" viewBox="0 0 93 93"><defs><style>.cls-1{fill:none;stroke:#fff;stroke-miterlimit:10;}.cls-2{fill:#fff;}</style></defs><title>twitter</title><circle class="cls-1" cx="46.5" cy="46.5" r="46"/><path class="cls-2" d="M68.13,40.15a15.08,15.08,0,0,1-4.29,1.07,6.94,6.94,0,0,0,3.22-3.93,14.73,14.73,0,0,1-4.64,1.79,7.13,7.13,0,0,0-5.36-2.32,7.21,7.21,0,0,0-7.32,7.15,5,5,0,0,0,.18,1.61A21.85,21.85,0,0,1,34.72,38a6.44,6.44,0,0,0-1.07,3.57,7.45,7.45,0,0,0,3.22,6.07,7.39,7.39,0,0,1-3.39-.89v0.18a7.28,7.28,0,0,0,5.9,7.15,6.7,6.7,0,0,1-2,.18A3.93,3.93,0,0,1,36,54.09a7.13,7.13,0,0,0,6.79,5,14.72,14.72,0,0,1-9.11,3,6.08,6.08,0,0,1-1.79-.18,21.78,21.78,0,0,0,11.25,3.22A20.69,20.69,0,0,0,64,44.62V43.73A11.47,11.47,0,0,0,68.13,40.15Z" transform="translate(-3.5 -3.5)"/></svg>