<svg id="Circle" xmlns="http://www.w3.org/2000/svg" viewBox="0 0 93 93"><defs><style>.cls-1{fill:none;stroke:#fff;stroke-miterlimit:10;}.cls-2{fill:#fff;}</style></defs><title>youtube</title><circle class="cls-1" cx="46.5" cy="46.5" r="46"/><path class="cls-2" d="M68.51,41.95s-0.37-2.78-1.5-4a5.21,5.21,0,0,0-3.78-1.7C57.94,35.83,50,35.83,50,35.83h0s-7.93,0-13.21.41A5.21,5.21,0,0,0,33,37.95c-1.13,1.22-1.5,4-1.5,4a64.89,64.89,0,0,0-.38,6.52v3.06A64.87,64.87,0,0,0,31.49,58s0.37,2.78,1.5,4a6.18,6.18,0,0,0,4.16,1.72c3,0.31,12.84.4,12.84,0.4s7.94,0,13.22-.42A5.23,5.23,0,0,0,67,62c1.13-1.22,1.5-4,1.5-4a64.9,64.9,0,0,0,.38-6.52V48.47A64.9,64.9,0,0,0,68.51,41.95ZM45.28,57.08V42.92L57.09,50Z" transform="translate(-3.5 -3.5)"/></svg>